<svg xmlns="http://www.w3.org/2000/svg" viewBox="0 0 985 390.41"><defs><style>.cls-1{fill:#54a9f9;}.cls-2{fill:#9487f5;}.cls-3{fill:#ff5252;}.cls-4{fill:#edd86a;}</style></defs><g id="레이어_2" data-name="레이어 2"><g id="레이어_2-2" data-name="레이어 2"><path class="cls-1" d="M984.8,365.7S943,294.41,823,290.41c-25.17-.84-81,2-135,1,0,0-120,5-264-66s-305-82-424,33.32V390.41H985"/><path class="cls-2" d="M424,227.41c144,71,264,66,264,66,54,1,109.83-1.84,135-1,120,4,161.8,75.29,161.8,75.29V291.45c-52.21-21-69.8-22-219.8-13s-192-7-223-15-116-42-164-72-94-47-125-54-66-9-133,8S0,206.68,0,206.68v54.05C119,145.36,280,156.41,424,227.41Z"/><path class="cls-3" d="M853,223.41c-4,3-89,65-259,33s-311-186-390-236S0,28,0,28V154.85s128-82.44,258-37.44,77,72,316,144c0,0,103.34,28,223-1s96.31-56.57,187.8-57.56v-41.7C938.59,162.9,857,220.41,853,223.41Z"/><path class="cls-4" d="M574,261.41c-239-72-186-99-316-144S0,154.85,0,154.85v51.83s53-44.27,120-61.27,102-15,133-8,77,24,125,54,133,64,164,72,73,24,223,15,167.59-7.92,219.8,13v-88.6c-91.49,1-68.14,28.56-187.8,57.56S574,261.41,574,261.41Z"/></g></g></svg>