<svg xmlns="http://www.w3.org/2000/svg" viewBox="0 0 1245.07 437.9"><defs><style>.cls-1{fill:#fff;}.cls-2{fill:#9487f5;}.cls-3{fill:#ff5252;}.cls-4{fill:#455b99;}</style></defs><g id="레이어_2" data-name="레이어 2"><g id="레이어_3" data-name="레이어 3"><path class="cls-1" d="M155,145.14c108-73,175-70,243-24s154,102,210,126,153,71,282,64,182-33,228-34,80.13-2,127.07,29V257.42c-59.88-20.71-179,26.72-320.07,40.72-262,26-479-175-505-193s-77-76-205-45S0,225,0,225v94.15S47,218.14,155,145.14Z"/><path class="cls-2" d="M215,60.14c128-31,179,27,205,45s243,219,505,193c141.09-14,260.19-61.43,320.07-40.72v-120C1175.94,155,1144.4,204.09,1018,256.14c-221,91-395-39-472-88s-141-153-281-167S0,107,0,107V225S87,91.14,215,60.14Z"/><path class="cls-3" d="M1118,277.14c-46,1-99,27-228,34s-226-40-282-64-142-80-210-126-135-49-243,24-155,174-155,174V437.9S94,222.14,249,167.14s200,53,362,103,194.19,69.54,457.6,24.77c92.82-15.78,146.22,11.88,176.47,54.32V306.16C1198.13,275.18,1164,276.14,1118,277.14Z"/><path class="cls-4" d="M1068.6,294.91C805.19,339.68,773,320.14,611,270.14s-207-158-362-103S0,437.9,0,437.9H1245.07V349.23C1214.82,306.79,1161.42,279.13,1068.6,294.91Z"/></g></g></svg>